<?xml version="1.0" standalone="no"?>
<!DOCTYPE svg PUBLIC "-//W3C//DTD SVG 20010904//EN"
 "http://www.w3.org/TR/2001/REC-SVG-20010904/DTD/svg10.dtd">
<svg version="1.0" xmlns="http://www.w3.org/2000/svg"
 width="4000.000000pt" height="4000.000000pt" viewBox="0 0 4000.000000 4000.000000"
 preserveAspectRatio="xMidYMid meet">
<metadata>
Created by potrace 1.11, written by Peter Selinger 2001-2013
</metadata>
<g transform="translate(0.000000,4000.000000) scale(0.100000,-0.100000)"
fill="#000000" stroke="none">
<path d="M11236 26798 c-4 -904 -13 -3126 -21 -4938 -8 -1812 -17 -4099 -21
-5082 l-7 -1788 -727 0 c-400 0 -1160 3 -1690 7 l-963 6 7 842 6 842 -1246 6
c-686 4 -1439 7 -1674 7 l-427 0 -7 -362 c-3 -200 -7 -995 -8 -1768 -3 -1510
-4 -1458 49 -1665 53 -205 156 -408 294 -577 99 -123 301 -315 411 -391 53
-37 148 -92 210 -121 221 -106 373 -142 653 -156 105 -5 1704 -14 3555 -21
3734 -13 3451 -17 3696 52 431 121 845 470 1039 874 83 174 132 348 154 546
10 93 16 1201 56 10419 17 3967 19 4889 14 4894 -2 2 -756 6 -1675 10 l-1671
7 -7 -1643z"/>
<path d="M18746 27599 c-6 -848 -7 -1173 -31 -7089 -8 -1983 -17 -4028 -20
-4545 -3 -517 -6 -1370 -6 -1895 -1 -845 0 -967 15 -1055 45 -270 140 -498
295 -705 73 -98 255 -286 356 -367 262 -211 553 -320 912 -343 125 -7 4223
-27 5048 -24 309 1 431 17 622 79 337 108 681 378 899 705 138 207 231 467
251 696 6 78 23 84 23 9 0 -52 24 -188 50 -284 79 -291 221 -525 457 -751 276
-266 589 -417 948 -459 100 -11 5195 -38 5375 -28 356 20 682 157 977 410 270
233 461 547 531 878 48 221 41 -595 84 9956 12 3048 20 5544 17 5547 -2 2
-757 7 -1676 11 l-1673 8 0 -569 c0 -531 -16 -4443 -40 -9584 -5 -1213 -10
-2451 -10 -2752 l0 -548 -587 0 c-324 0 -1085 3 -1692 7 l-1103 6 6 971 c4
534 13 2632 22 4661 8 2030 19 4617 24 5750 5 1133 6 2063 2 2066 -4 4 -757
10 -1673 13 l-1667 7 -5 -223 c-4 -123 -13 -2124 -22 -4448 -9 -2324 -20
-5071 -25 -6105 -5 -1034 -10 -2060 -10 -2279 l0 -399 -1687 6 c-927 4 -1687
8 -1688 9 -1 2 2 827 6 1833 5 1007 15 3470 23 5475 9 2005 19 4208 22 4897
l7 1252 -939 1 c-516 0 -1270 3 -1675 7 l-737 6 -6 -814z"/>
</g>
</svg>
